<svg width="32" height="32" viewBox="0 0 32 32" fill="none" xmlns="http://www.w3.org/2000/svg">
<path d="M22 4C20.6739 4 19.4021 4.52678 18.4645 5.46447C17.5268 6.40215 17 7.67392 17 9V11C16.9998 12.1527 17.3978 13.27 18.1267 14.1629C18.8556 15.0558 19.8706 15.6695 21 15.9V18.18C20.4165 18.3863 19.911 18.7681 19.5529 19.2729C19.1949 19.7778 19.0017 20.3811 19 21V25C19 25.7956 19.3161 26.5587 19.8787 27.1213C20.4413 27.6839 21.2044 28 22 28C22.7956 28 23.5587 27.6839 24.1213 27.1213C24.6839 26.5587 25 25.7956 25 25V21C24.9983 20.3811 24.8051 19.7778 24.4471 19.2729C24.089 18.7681 23.5835 18.3863 23 18.18V15.9C24.1294 15.6695 25.1444 15.0558 25.8733 14.1629C26.6022 13.27 27.0002 12.1527 27 11V9C27 7.67392 26.4732 6.40215 25.5355 5.46447C24.5979 4.52678 23.3261 4 22 4Z" fill="black"/>
<path d="M14 4C13.7348 4 13.4804 4.10536 13.2929 4.29289C13.1054 4.48043 13 4.73478 13 5V9C13 9.26522 12.8946 9.51957 12.7071 9.70711C12.5196 9.89464 12.2652 10 12 10C11.7348 10 11.4804 9.89464 11.2929 9.70711C11.1054 9.51957 11 9.26522 11 9V5C11 4.73478 10.8946 4.48043 10.7071 4.29289C10.5196 4.10536 10.2652 4 10 4C9.73478 4 9.48043 4.10536 9.29289 4.29289C9.10536 4.48043 9 4.73478 9 5V9C9 9.26522 8.89464 9.51957 8.70711 9.70711C8.51957 9.89464 8.26522 10 8 10C7.73478 10 7.48043 9.89464 7.29289 9.70711C7.10536 9.51957 7 9.26522 7 9V5C7 4.73478 6.89464 4.48043 6.70711 4.29289C6.51957 4.10536 6.26522 4 6 4C5.73478 4 5.48043 4.10536 5.29289 4.29289C5.10536 4.48043 5 4.73478 5 5V11C4.99976 12.1527 5.39778 13.27 6.12669 14.1629C6.8556 15.0558 7.87064 15.6695 9 15.9V18.18C8.41645 18.3863 7.911 18.7681 7.55294 19.2729C7.19488 19.7778 7.00174 20.3811 7 21V25C7 25.7956 7.31607 26.5587 7.87868 27.1213C8.44129 27.6839 9.20435 28 10 28C10.7956 28 11.5587 27.6839 12.1213 27.1213C12.6839 26.5587 13 25.7956 13 25V21C12.9983 20.3811 12.8051 19.7778 12.4471 19.2729C12.089 18.7681 11.5835 18.3863 11 18.18V15.9C12.1294 15.6695 13.1444 15.0558 13.8733 14.1629C14.6022 13.27 15.0002 12.1527 15 11V5C15 4.73478 14.8946 4.48043 14.7071 4.29289C14.5196 4.10536 14.2652 4 14 4Z" fill="black"/>
</svg>
