<svg width="32" height="32" viewBox="0 0 32 32" fill="none" xmlns="http://www.w3.org/2000/svg">
<path d="M5.00002 17L25.41 17L20 22.36C19.9063 22.453 19.8319 22.5636 19.7811 22.6854C19.7304 22.8073 19.7042 22.938 19.7042 23.07C19.7042 23.202 19.7304 23.3327 19.7811 23.4546C19.8319 23.5764 19.9063 23.687 20 23.78C20.1874 23.9663 20.4408 24.0708 20.705 24.0708C20.9692 24.0708 21.2227 23.9663 21.41 23.78L27.12 18.12C27.6818 17.5575 27.9974 16.795 27.9974 16C27.9974 15.205 27.6818 14.4425 27.12 13.88L21.46 8.22001C21.2738 8.03526 21.0224 7.93111 20.76 7.93001C20.6284 7.92925 20.4979 7.95447 20.3761 8.00424C20.2543 8.054 20.1435 8.12733 20.05 8.22001C19.9563 8.31297 19.8819 8.42357 19.8311 8.54543C19.7804 8.66729 19.7542 8.798 19.7542 8.93001C19.7542 9.06202 19.7804 9.19273 19.8311 9.31458C19.8819 9.43644 19.9563 9.54704 20.05 9.64001L25.41 15L5.00002 15C4.7348 15 4.48044 15.1054 4.29291 15.2929C4.10537 15.4804 4.00002 15.7348 4.00002 16C4.00002 16.2652 4.10537 16.5196 4.29291 16.7071C4.48044 16.8947 4.7348 17 5.00002 17Z" fill="black"/>
</svg>
