<svg width="32" height="32" viewBox="0 0 32 32" fill="none" xmlns="http://www.w3.org/2000/svg">
<path d="M16 11.59C17.3199 11.5743 18.5924 12.0811 19.54 13L25.19 18.71C25.3539 18.9013 25.4395 19.1474 25.4297 19.399C25.42 19.6507 25.3157 19.8895 25.1376 20.0675C24.9595 20.2456 24.7208 20.35 24.4691 20.3597C24.2174 20.3694 23.9713 20.2838 23.78 20.12L18.12 14.46C17.5477 13.917 16.7889 13.6143 16 13.6143C15.2111 13.6143 14.4523 13.917 13.88 14.46L8.22002 20.12C8.02872 20.2838 7.78265 20.3694 7.53097 20.3597C7.27929 20.35 7.04055 20.2456 6.86246 20.0675C6.68436 19.8895 6.58003 19.6507 6.57031 19.399C6.56059 19.1474 6.6462 18.9013 6.81002 18.71L12.46 13C13.4077 12.0811 14.6802 11.5743 16 11.59Z" fill="black"/>
</svg>
